<mxfile host="app.diagrams.net" modified="2021-10-06T12:05:47.033Z" agent="5.0 (Windows NT 10.0; Win64; x64) AppleWebKit/537.36 (KHTML, like Gecko) Chrome/94.0.4606.61 Safari/537.36" etag="m_k0D596AeqX1ZNplW-9" version="14.8.4" type="github">
  <diagram id="eoUAy3H3YS8sCVk5hl4_" name="第 1 页">
    <mxGraphModel dx="2000" dy="1162" grid="1" gridSize="10" guides="1" tooltips="1" connect="1" arrows="1" fold="1" page="1" pageScale="1" pageWidth="827" pageHeight="1169" math="0" shadow="0">
      <root>
        <mxCell id="0" />
        <mxCell id="1" parent="0" />
        <mxCell id="vCIHvUeYEsXFyzLJUBQO-1" value="&lt;font style=&quot;font-size: 14px&quot;&gt;Surface1&lt;/font&gt;" style="rounded=0;whiteSpace=wrap;html=1;fillColor=#ffe6cc;strokeColor=#d79b00;" vertex="1" parent="1">
          <mxGeometry x="110" y="260" width="120" height="60" as="geometry" />
        </mxCell>
        <mxCell id="vCIHvUeYEsXFyzLJUBQO-2" value="&lt;font style=&quot;font-size: 14px&quot;&gt;Surface1&lt;/font&gt;" style="rounded=0;whiteSpace=wrap;html=1;fillColor=#ffe6cc;strokeColor=#d79b00;" vertex="1" parent="1">
          <mxGeometry x="110" y="350" width="120" height="60" as="geometry" />
        </mxCell>
        <mxCell id="vCIHvUeYEsXFyzLJUBQO-3" value="&lt;font style=&quot;font-size: 24px&quot;&gt;...&lt;/font&gt;" style="rounded=0;whiteSpace=wrap;html=1;fillColor=#ffe6cc;strokeColor=#d79b00;" vertex="1" parent="1">
          <mxGeometry x="110" y="440" width="120" height="60" as="geometry" />
        </mxCell>
        <mxCell id="vCIHvUeYEsXFyzLJUBQO-4" value="&lt;font style=&quot;font-size: 14px&quot;&gt;SurfaceN&lt;span style=&quot;white-space: pre&quot;&gt;	&lt;/span&gt;&lt;/font&gt;" style="rounded=0;whiteSpace=wrap;html=1;fillColor=#ffe6cc;strokeColor=#d79b00;" vertex="1" parent="1">
          <mxGeometry x="110" y="525" width="120" height="60" as="geometry" />
        </mxCell>
        <mxCell id="vCIHvUeYEsXFyzLJUBQO-5" value="GPU" style="rounded=0;whiteSpace=wrap;html=1;fillColor=#d5e8d4;strokeColor=#82b366;" vertex="1" parent="1">
          <mxGeometry x="210" y="270" width="60" height="40" as="geometry" />
        </mxCell>
        <mxCell id="vCIHvUeYEsXFyzLJUBQO-6" value="GPU" style="rounded=0;whiteSpace=wrap;html=1;fillColor=#d5e8d4;strokeColor=#82b366;" vertex="1" parent="1">
          <mxGeometry x="210" y="360" width="60" height="40" as="geometry" />
        </mxCell>
        <mxCell id="vCIHvUeYEsXFyzLJUBQO-7" value="GPU" style="rounded=0;whiteSpace=wrap;html=1;fillColor=#d5e8d4;strokeColor=#82b366;" vertex="1" parent="1">
          <mxGeometry x="210" y="450" width="60" height="40" as="geometry" />
        </mxCell>
        <mxCell id="vCIHvUeYEsXFyzLJUBQO-8" value="GPU" style="rounded=0;whiteSpace=wrap;html=1;fillColor=#d5e8d4;strokeColor=#82b366;" vertex="1" parent="1">
          <mxGeometry x="210" y="535" width="60" height="40" as="geometry" />
        </mxCell>
        <mxCell id="vCIHvUeYEsXFyzLJUBQO-9" value="&lt;font style=&quot;font-size: 14px&quot;&gt;BufferQueue&lt;/font&gt;" style="rounded=0;whiteSpace=wrap;html=1;fillColor=#f8cecc;strokeColor=#b85450;" vertex="1" parent="1">
          <mxGeometry x="370" y="260" width="120" height="60" as="geometry" />
        </mxCell>
        <mxCell id="vCIHvUeYEsXFyzLJUBQO-10" value="" style="rounded=0;whiteSpace=wrap;html=1;fillColor=#f8cecc;strokeColor=#b85450;" vertex="1" parent="1">
          <mxGeometry x="370" y="525" width="420" height="205" as="geometry" />
        </mxCell>
        <mxCell id="vCIHvUeYEsXFyzLJUBQO-11" value="&lt;font style=&quot;font-size: 14px&quot;&gt;BufferQueue&lt;/font&gt;" style="rounded=0;whiteSpace=wrap;html=1;fillColor=#f8cecc;strokeColor=#b85450;" vertex="1" parent="1">
          <mxGeometry x="370" y="440" width="120" height="60" as="geometry" />
        </mxCell>
        <mxCell id="vCIHvUeYEsXFyzLJUBQO-12" value="&lt;font style=&quot;font-size: 14px&quot;&gt;BufferQueue&lt;/font&gt;" style="rounded=0;whiteSpace=wrap;html=1;fillColor=#f8cecc;strokeColor=#b85450;" vertex="1" parent="1">
          <mxGeometry x="370" y="350" width="120" height="60" as="geometry" />
        </mxCell>
        <mxCell id="vCIHvUeYEsXFyzLJUBQO-13" value="" style="endArrow=classic;html=1;exitX=1;exitY=0.5;exitDx=0;exitDy=0;entryX=0;entryY=0.5;entryDx=0;entryDy=0;" edge="1" parent="1" source="vCIHvUeYEsXFyzLJUBQO-5" target="vCIHvUeYEsXFyzLJUBQO-9">
          <mxGeometry width="50" height="50" relative="1" as="geometry">
            <mxPoint x="390" y="600" as="sourcePoint" />
            <mxPoint x="440" y="550" as="targetPoint" />
          </mxGeometry>
        </mxCell>
        <mxCell id="vCIHvUeYEsXFyzLJUBQO-14" value="" style="endArrow=classic;html=1;exitX=1;exitY=0.5;exitDx=0;exitDy=0;entryX=0;entryY=0.5;entryDx=0;entryDy=0;" edge="1" parent="1">
          <mxGeometry width="50" height="50" relative="1" as="geometry">
            <mxPoint x="270" y="379.5" as="sourcePoint" />
            <mxPoint x="370" y="379.5" as="targetPoint" />
          </mxGeometry>
        </mxCell>
        <mxCell id="vCIHvUeYEsXFyzLJUBQO-15" value="" style="endArrow=classic;html=1;exitX=1;exitY=0.5;exitDx=0;exitDy=0;entryX=0;entryY=0.5;entryDx=0;entryDy=0;" edge="1" parent="1">
          <mxGeometry width="50" height="50" relative="1" as="geometry">
            <mxPoint x="270" y="469.5" as="sourcePoint" />
            <mxPoint x="370" y="469.5" as="targetPoint" />
          </mxGeometry>
        </mxCell>
        <mxCell id="vCIHvUeYEsXFyzLJUBQO-16" value="" style="endArrow=classic;html=1;exitX=1;exitY=0.5;exitDx=0;exitDy=0;entryX=0.5;entryY=0;entryDx=0;entryDy=0;" edge="1" parent="1" target="vCIHvUeYEsXFyzLJUBQO-18">
          <mxGeometry width="50" height="50" relative="1" as="geometry">
            <mxPoint x="270" y="554.5" as="sourcePoint" />
            <mxPoint x="370" y="554.5" as="targetPoint" />
            <Array as="points">
              <mxPoint x="500" y="555" />
              <mxPoint x="690" y="555" />
            </Array>
          </mxGeometry>
        </mxCell>
        <mxCell id="vCIHvUeYEsXFyzLJUBQO-21" value="OpenGL ES" style="edgeLabel;html=1;align=center;verticalAlign=middle;resizable=0;points=[];" vertex="1" connectable="0" parent="vCIHvUeYEsXFyzLJUBQO-16">
          <mxGeometry x="-0.7374" y="1" relative="1" as="geometry">
            <mxPoint as="offset" />
          </mxGeometry>
        </mxCell>
        <mxCell id="vCIHvUeYEsXFyzLJUBQO-17" value="&lt;font style=&quot;font-size: 14px&quot;&gt;Font Buffer&lt;/font&gt;" style="rounded=0;whiteSpace=wrap;html=1;fillColor=#d80073;strokeColor=#A50040;fontColor=#ffffff;" vertex="1" parent="1">
          <mxGeometry x="400" y="630" width="120" height="60" as="geometry" />
        </mxCell>
        <mxCell id="vCIHvUeYEsXFyzLJUBQO-18" value="&lt;font style=&quot;font-size: 14px&quot;&gt;OffScreen Buffer&lt;/font&gt;" style="rounded=0;whiteSpace=wrap;html=1;fillColor=#d80073;strokeColor=#A50040;fontColor=#ffffff;" vertex="1" parent="1">
          <mxGeometry x="630" y="630" width="120" height="60" as="geometry" />
        </mxCell>
        <mxCell id="vCIHvUeYEsXFyzLJUBQO-19" value="" style="endArrow=classic;html=1;exitX=0;exitY=0.5;exitDx=0;exitDy=0;entryX=1;entryY=0.5;entryDx=0;entryDy=0;" edge="1" parent="1" source="vCIHvUeYEsXFyzLJUBQO-18" target="vCIHvUeYEsXFyzLJUBQO-17">
          <mxGeometry width="50" height="50" relative="1" as="geometry">
            <mxPoint x="390" y="600" as="sourcePoint" />
            <mxPoint x="440" y="550" as="targetPoint" />
          </mxGeometry>
        </mxCell>
        <mxCell id="vCIHvUeYEsXFyzLJUBQO-22" value="&lt;span style=&quot;font-size: 12px ; background-color: rgb(248 , 249 , 250)&quot;&gt;Swap&lt;/span&gt;&lt;br style=&quot;font-size: 12px ; background-color: rgb(248 , 249 , 250)&quot;&gt;&lt;span style=&quot;font-size: 12px ; background-color: rgb(248 , 249 , 250)&quot;&gt;Buffer&lt;/span&gt;" style="edgeLabel;html=1;align=center;verticalAlign=middle;resizable=0;points=[];" vertex="1" connectable="0" parent="vCIHvUeYEsXFyzLJUBQO-19">
          <mxGeometry x="0.2909" y="-2" relative="1" as="geometry">
            <mxPoint as="offset" />
          </mxGeometry>
        </mxCell>
        <mxCell id="vCIHvUeYEsXFyzLJUBQO-23" value="Text" style="text;html=1;strokeColor=none;fillColor=none;align=center;verticalAlign=middle;whiteSpace=wrap;rounded=0;" vertex="1" parent="1">
          <mxGeometry x="390" y="560" width="40" height="20" as="geometry" />
        </mxCell>
        <mxCell id="vCIHvUeYEsXFyzLJUBQO-24" value="Buffer Queue" style="text;html=1;strokeColor=none;fillColor=none;align=center;verticalAlign=middle;whiteSpace=wrap;rounded=0;" vertex="1" parent="1">
          <mxGeometry x="730" y="535" width="40" height="20" as="geometry" />
        </mxCell>
        <mxCell id="vCIHvUeYEsXFyzLJUBQO-25" value="" style="endArrow=none;dashed=1;html=1;dashPattern=1 3;strokeWidth=2;exitX=0.5;exitY=1;exitDx=0;exitDy=0;entryX=0;entryY=0.75;entryDx=0;entryDy=0;" edge="1" parent="1" source="vCIHvUeYEsXFyzLJUBQO-4" target="vCIHvUeYEsXFyzLJUBQO-10">
          <mxGeometry width="50" height="50" relative="1" as="geometry">
            <mxPoint x="170" y="590" as="sourcePoint" />
            <mxPoint x="440" y="540" as="targetPoint" />
            <Array as="points">
              <mxPoint x="170" y="679" />
            </Array>
          </mxGeometry>
        </mxCell>
        <mxCell id="vCIHvUeYEsXFyzLJUBQO-26" value="匿名共享内存" style="edgeLabel;html=1;align=center;verticalAlign=middle;resizable=0;points=[];" vertex="1" connectable="0" parent="vCIHvUeYEsXFyzLJUBQO-25">
          <mxGeometry x="0.0749" y="4" relative="1" as="geometry">
            <mxPoint as="offset" />
          </mxGeometry>
        </mxCell>
        <mxCell id="vCIHvUeYEsXFyzLJUBQO-32" value="" style="edgeStyle=orthogonalEdgeStyle;rounded=0;orthogonalLoop=1;jettySize=auto;html=1;" edge="1" parent="1" source="vCIHvUeYEsXFyzLJUBQO-27" target="vCIHvUeYEsXFyzLJUBQO-30">
          <mxGeometry relative="1" as="geometry" />
        </mxCell>
        <mxCell id="vCIHvUeYEsXFyzLJUBQO-27" value="&lt;font style=&quot;font-size: 18px&quot;&gt;SurfaceFlinger&lt;/font&gt;" style="rounded=0;whiteSpace=wrap;html=1;fillColor=#e3c800;strokeColor=#B09500;fontColor=#000000;" vertex="1" parent="1">
          <mxGeometry x="115" y="800" width="690" height="60" as="geometry" />
        </mxCell>
        <mxCell id="vCIHvUeYEsXFyzLJUBQO-28" value="" style="endArrow=classic;html=1;exitX=0.5;exitY=1;exitDx=0;exitDy=0;" edge="1" parent="1" source="vCIHvUeYEsXFyzLJUBQO-17" target="vCIHvUeYEsXFyzLJUBQO-27">
          <mxGeometry width="50" height="50" relative="1" as="geometry">
            <mxPoint x="390" y="590" as="sourcePoint" />
            <mxPoint x="440" y="540" as="targetPoint" />
            <Array as="points">
              <mxPoint x="460" y="740" />
            </Array>
          </mxGeometry>
        </mxCell>
        <mxCell id="vCIHvUeYEsXFyzLJUBQO-29" value="acquire" style="edgeLabel;html=1;align=center;verticalAlign=middle;resizable=0;points=[];" vertex="1" connectable="0" parent="vCIHvUeYEsXFyzLJUBQO-28">
          <mxGeometry x="0.1455" y="-2" relative="1" as="geometry">
            <mxPoint as="offset" />
          </mxGeometry>
        </mxCell>
        <mxCell id="vCIHvUeYEsXFyzLJUBQO-33" value="" style="edgeStyle=orthogonalEdgeStyle;rounded=0;orthogonalLoop=1;jettySize=auto;html=1;" edge="1" parent="1" source="vCIHvUeYEsXFyzLJUBQO-30" target="vCIHvUeYEsXFyzLJUBQO-31">
          <mxGeometry relative="1" as="geometry" />
        </mxCell>
        <mxCell id="vCIHvUeYEsXFyzLJUBQO-30" value="&lt;font style=&quot;font-size: 18px&quot;&gt;HardWare Composer&lt;/font&gt;" style="rounded=0;whiteSpace=wrap;html=1;fillColor=#6d8764;strokeColor=#3A5431;fontColor=#ffffff;" vertex="1" parent="1">
          <mxGeometry x="115" y="890" width="690" height="60" as="geometry" />
        </mxCell>
        <mxCell id="vCIHvUeYEsXFyzLJUBQO-31" value="&lt;font style=&quot;font-size: 18px&quot;&gt;Frame Buffer&lt;/font&gt;" style="rounded=0;whiteSpace=wrap;html=1;fillColor=#e51400;strokeColor=#B20000;fontColor=#ffffff;" vertex="1" parent="1">
          <mxGeometry x="115" y="990" width="690" height="60" as="geometry" />
        </mxCell>
      </root>
    </mxGraphModel>
  </diagram>
</mxfile>
